# xmcd CD database file
#
# Track frame offsets:
#	150
#	2406
#	20656
#	37527
#	53420
#	74031
#	91668
#	115575
#	131706
#	149204
#	166256
#	184647
#	208930
#	226901
#	243521
#	265096
#
# Disc length: 3795 seconds
#
# Revision: 1
# Processed by: cddbd v1.5.2PL0 Copyright (c) Steve Scherf et al.
# Submitted via: CDex 1.70beta2
#
DISCID=d20ed110
DTITLE=Jamey Aebersold - Cole Porter
DYEAR=1986
DGENRE=Jazz
TTITLE0=Tuning Notes
TTITLE1=I Love Paris
TTITLE2=All Of You
TTITLE3=What Is This Thing...
TTITLE4=It's All Right With Me
TTITLE5=I Concentrate On You
TTITLE6=It's De-Lovely
TTITLE7=You'd Be So Nice...
TTITLE8=I Love You
TTITLE9=Love For Sale
TTITLE10=So In Love
TTITLE11=I Get A Kick...
TTITLE12=Easy To Love
TTITLE13=Let's Do It
TTITLE14=I've Got You Under...
TTITLE15=Night And Day
EXTD=YEAR: 1986
EXTT0=
EXTT1=
EXTT2=
EXTT3=
EXTT4=
EXTT5=
EXTT6=
EXTT7=
EXTT8=
EXTT9=
EXTT10=
EXTT11=
EXTT12=
EXTT13=
EXTT14=
EXTT15=
PLAYORDER=
